<svg width="3420" height="821" viewBox="0 0 3420 821" fill="none" xmlns="http://www.w3.org/2000/svg">
<rect width="1920" height="760" transform="translate(0 61)" fill="#14B789"/>
<path d="M0 380H57C114 380 228 380 342 329.413C456 277.875 570 178.125 684 152C798 125.875 912 178.125 1026 253.412C1140 330.125 1254 429.875 1368 494C1482 558.125 1596 581.875 1710 570C1824 558.125 1938 505.875 2052 443.413C2166 380 2280 304 2394 316.587C2508 330.125 2622 429.875 2736 481.413C2850 532 2964 532 3078 468.587C3192 406.125 3306 277.875 3363 215.412L3420 152V0H3363C3306 0 3192 0 3078 0C2964 0 2850 0 2736 0C2622 0 2508 0 2394 0C2280 0 2166 0 2052 0C1938 0 1824 0 1710 0C1596 0 1482 0 1368 0C1254 0 1140 0 1026 0C912 0 798 0 684 0C570 0 456 0 342 0C228 0 114 0 57 0H0V380Z" fill="#535DA1"/>
</svg>
